<svg id="Capa_1" enable-background="new 0 0 512 512" height="512" viewBox="0 0 512 512" width="512" xmlns="http://www.w3.org/2000/svg"><g><g><g><g><path d="m389.552 104.723c-9.131 0-16.533-7.402-16.533-16.533v-25.33c0-6.078-4.945-11.022-11.022-11.022h-215.189c-6.078 0-11.022 4.944-11.022 11.022v25.329c0 9.131-7.402 16.533-16.533 16.533s-16.533-7.402-16.533-16.533v-25.329c0-24.311 19.778-44.089 44.089-44.089h215.188c24.31 0 44.089 19.778 44.089 44.089v25.329c-.001 9.132-7.403 16.534-16.534 16.534z" fill="#7a6e79"/></g><g><g><path d="m158.331 137.509h-72.702v-31.816c0-9.131 7.402-16.533 16.533-16.533h39.635c9.131 0 16.533 7.402 16.533 16.533v31.816z" fill="#fee265"/><path d="m158.332 105.693v31.821h-29.903v-31.821c0-9.126-7.407-16.533-16.533-16.533h29.903c9.126 0 16.533 7.406 16.533 16.533z" fill="#fdd330"/></g><g><path d="m426.37 137.509h-72.702v-31.816c0-9.131 7.402-16.533 16.533-16.533h39.635c9.131 0 16.533 7.402 16.533 16.533v31.816z" fill="#fee265"/><path d="m426.371 105.693v31.821h-29.903v-31.821c0-9.126-7.407-16.533-16.533-16.533h29.903c9.126 0 16.533 7.406 16.533 16.533z" fill="#fdd330"/></g></g><g><g><path d="m503.717 249.632v217.842c0 14.216-11.538 25.755-25.755 25.755h-443.925c-14.216 0-25.755-11.538-25.755-25.755v-217.842z" fill="#7a6e79"/><g fill="#685e67"><path d="m267.59 353.999c-3.781.979-7.675 1.473-11.59 1.473-3.904 0-7.809-.494-11.6-1.473l-233.913-60.42c-.742-.196-1.473-.402-2.205-.628v-43.319h495.435v43.319c-.731.227-1.463.433-2.204.628"/><path d="m503.717 249.632v217.842c0 14.216-11.538 25.755-25.755 25.755h-36.592c14.227 0 25.755-11.538 25.755-25.755v-217.842z"/></g></g><g><path d="m495.076 268.642-233.923 60.425c-3.38.873-6.926.873-10.306 0l-233.923-60.425c-9.963-2.573-16.924-11.56-16.924-21.85v-99.867c0-14.224 11.531-25.755 25.755-25.755h460.491c14.224 0 25.755 11.531 25.755 25.755v99.867c-.001 10.29-6.962 19.277-16.925 21.85z" fill="#918291"/><path d="m512 146.923v99.866c0 10.292-6.964 19.285-16.926 21.85l-30.936 7.994c6.851-3.946 11.27-11.332 11.27-19.543v-110.167c0-14.227-11.528-25.755-25.755-25.755h36.592c14.227 0 25.755 11.528 25.755 25.755z" fill="#7a6e79"/></g></g></g><g><circle cx="256" cy="252.192" fill="#685e67" r="40.177"/></g><g><path d="m287.753 267.804h-63.505c-8.622 0-15.612-6.99-15.612-15.612 0-8.622 6.99-15.612 15.612-15.612h63.505c8.622 0 15.612 6.99 15.612 15.612-.001 8.622-6.99 15.612-15.612 15.612z" fill="#fee265"/></g><g><path d="m303.368 252.197c0 4.306-1.751 8.211-4.574 11.033-2.823 2.823-6.737 4.574-11.044 4.574h-23.89c4.316 0 8.211-1.751 11.033-4.574 2.823-2.823 4.574-6.727 4.574-11.033 0-8.623-6.985-15.618-15.607-15.618h23.89c8.623 0 15.618 6.995 15.618 15.618z" fill="#fdd330"/></g></g><path d="m451.348 455.875h-75.456c-5.69 0-10.302-4.612-10.302-10.302v-20.216c0-5.69 4.612-10.302 10.302-10.302h75.456c5.69 0 10.302 4.612 10.302 10.302v20.216c-.001 5.69-4.613 10.302-10.302 10.302z" fill="#fde784"/><path d="m461.645 425.362v20.212c0 5.687-4.605 10.302-10.302 10.302h-24.384c5.687 0 10.302-4.615 10.302-10.302v-20.212c0-5.697-4.615-10.302-10.302-10.302h24.384c5.697 0 10.302 4.605 10.302 10.302z" fill="#fdd330"/></g></svg>